<svg aria-hidden="true" style="position: absolute; width: 0; height: 0; overflow: hidden;" version="1.1" xmlns="http://www.w3.org/2000/svg" xmlns:xlink="http://www.w3.org/1999/xlink">
<defs>
<symbol id="icon-facebook" viewBox="-11 -11 54 54">
<path d="M8.434 17.043h3.508v14.441c0 0.285 0.231 0.516 0.516 0.516h5.947c0.285 0 0.516-0.231 0.516-0.516v-14.373h4.032c0.262 0 0.483-0.197 0.513-0.457l0.612-5.316c0.017-0.146-0.030-0.293-0.127-0.402s-0.238-0.173-0.385-0.173h-4.645v-3.333c0-1.005 0.541-1.514 1.608-1.514 0.152 0 3.037 0 3.037 0 0.285 0 0.516-0.231 0.516-0.516v-4.88c0-0.285-0.231-0.516-0.516-0.516h-4.185c-0.030-0.001-0.095-0.004-0.192-0.004-0.726 0-3.25 0.143-5.244 1.977-2.209 2.033-1.902 4.467-1.829 4.889v3.897h-3.682c-0.285 0-0.516 0.231-0.516 0.516v5.248c0 0.285 0.231 0.516 0.516 0.516z"></path>
</symbol>
<symbol id="icon-twitter" viewBox="-9 -9 50 50">
<path d="M32.040 6.68c-1.183 0.525-2.45 0.877-3.782 1.037 1.36-0.815 2.405-2.105 2.895-3.64-1.27 0.752-2.683 1.3-4.18 1.595-1.2-1.28-2.91-2.078-4.802-2.078-3.635 0-6.582 2.945-6.582 6.58 0 0.515 0.060 1.018 0.172 1.5-5.47-0.275-10.318-2.895-13.565-6.878-0.567 0.975-0.89 2.105-0.89 3.31 0 2.283 1.16 4.297 2.927 5.48-1.080-0.035-2.095-0.332-2.982-0.825 0 0.027 0 0.055 0 0.082 0 3.19 2.27 5.848 5.277 6.455-0.55 0.15-1.133 0.23-1.732 0.23-0.425 0-0.837-0.040-1.24-0.12 0.84 2.613 3.27 4.52 6.147 4.572-2.25 1.765-5.088 2.815-8.172 2.815-0.532 0-1.055-0.030-1.567-0.093 2.91 1.87 6.37 2.957 10.087 2.957 12.105 0 18.725-10.027 18.725-18.723 0-0.285-0.008-0.572-0.017-0.852 1.285-0.928 2.4-2.088 3.283-3.408z"></path>
</symbol>
<symbol id="icon-linkedin" viewBox="0 0 32 32">
<path d="M7.449 10.295h-6.424c-0.285 0-0.516 0.231-0.516 0.516v20.638c0 0.285 0.231 0.516 0.516 0.516h6.424c0.285 0 0.516-0.231 0.516-0.516v-20.638c0-0.285-0.231-0.516-0.516-0.516z"></path>
<path d="M4.239 0.035c-2.337 0-4.239 1.9-4.239 4.234 0 2.336 1.902 4.236 4.239 4.236 2.336 0 4.236-1.9 4.236-4.236s-1.9-4.234-4.236-4.234z"></path>
<path d="M23.789 9.782c-2.58 0-4.487 1.109-5.644 2.369v-1.34c0-0.285-0.231-0.516-0.516-0.516h-6.152c-0.285 0-0.516 0.231-0.516 0.516v20.638c0 0.285 0.231 0.516 0.516 0.516h6.41c0.285 0 0.516-0.231 0.516-0.516v-10.211c0-3.441 0.935-4.781 3.333-4.781 2.612 0 2.82 2.149 2.82 4.958v10.034c0 0.285 0.231 0.516 0.516 0.516h6.412c0.285 0 0.516-0.231 0.516-0.516v-11.32c0-5.116-0.976-10.347-8.211-10.347z"></path>
</symbol>
<symbol id="icon-odnoklassniki" viewBox="0 0 32 32">
<path d="M19.339 23.255c1.703-0.391 3.323-1.061 4.801-1.989 1.111-0.744 1.412-2.244 0.667-3.359-0.713-1.068-2.14-1.391-3.244-0.735-3.401 2.125-7.724 2.125-11.125 0-1.125-0.713-2.62-0.375-3.333 0.749 0 0.005 0 0.005 0 0.005-0.713 1.131-0.375 2.625 0.756 3.333l0.004 0.005c1.475 0.928 3.095 1.599 4.792 1.985l-4.62 4.619c-0.943 0.928-0.957 2.437-0.036 3.381l0.041 0.041c0.459 0.473 1.079 0.708 1.699 0.708s1.239-0.235 1.697-0.708l4.563-4.537 4.536 4.543c0.964 0.921 2.495 0.9 3.423-0.063 0.905-0.937 0.905-2.423 0-3.36zM16 16.516c4.563-0.005 8.255-3.699 8.26-8.256 0-4.552-3.708-8.26-8.26-8.26s-8.26 3.708-8.26 8.26c0.005 4.563 3.703 8.256 8.26 8.261zM16 4.844c1.885 0 3.416 1.531 3.416 3.416 0 1.891-1.531 3.417-3.416 3.423-1.885-0.005-3.416-1.532-3.421-3.423 0.005-1.885 1.536-3.416 3.421-3.421z"></path>
</symbol>
<symbol id="icon-pinterest" viewBox="0 0 32 32">
<path d="M13.787 21.163c-0.842 4.406-1.867 8.63-4.909 10.837-0.938-6.659 1.378-11.659 2.454-16.968-1.835-3.088 0.221-9.299 4.088-7.768 4.76 1.882-4.122 11.475 1.84 12.675 6.226 1.25 8.766-10.8 4.906-14.718-5.576-5.661-16.234-0.133-14.922 7.971 0.318 1.981 2.365 2.581 0.818 5.315-3.57-0.79-4.635-3.606-4.498-7.36 0.221-6.144 5.518-10.443 10.834-11.040 6.722-0.754 13.030 2.469 13.902 8.79 0.981 7.138-3.034 14.869-10.222 14.312-1.949-0.152-2.765-1.118-4.291-2.046z"></path>
</symbol>
<symbol id="icon-telegram" viewBox="-5 -7 46 46">
<path d="M27.553 4.956l-23.64 9.116c-1.613 0.648-1.604 1.548-0.296 1.949l6.069 1.893 14.043-8.86c0.664-0.404 1.271-0.187 0.772 0.256l-11.377 10.269-0.419 6.256c0.613 0 0.884-0.281 1.228-0.613l2.948-2.867 6.132 4.529c1.131 0.623 1.943 0.303 2.224-1.047l4.025-18.971c0.412-1.652-0.631-2.4-1.709-1.912z"></path>
</symbol>
<symbol id="icon-tiktok" viewBox="0 0 32 32">
<path d="M16.707 0.027c1.747-0.027 3.48-0.013 5.213-0.027 0.107 2.040 0.84 4.12 2.333 5.56 1.493 1.48 3.6 2.16 5.653 2.387v5.373c-1.92-0.067-3.853-0.467-5.6-1.293-0.76-0.347-1.467-0.787-2.16-1.24-0.013 3.893 0.013 7.787-0.027 11.667-0.107 1.867-0.72 3.72-1.8 5.253-1.747 2.56-4.773 4.227-7.88 4.28-1.907 0.107-3.813-0.413-5.44-1.373-2.693-1.587-4.587-4.493-4.867-7.613-0.027-0.667-0.040-1.333-0.013-1.987 0.24-2.533 1.493-4.96 3.44-6.613 2.213-1.92 5.307-2.84 8.2-2.293 0.027 1.973-0.053 3.947-0.053 5.92-1.32-0.427-2.867-0.307-4.027 0.493-0.84 0.547-1.48 1.387-1.813 2.333-0.28 0.68-0.2 1.427-0.187 2.147 0.32 2.187 2.427 4.027 4.667 3.827 1.493-0.013 2.92-0.88 3.693-2.147 0.253-0.44 0.533-0.893 0.547-1.413 0.133-2.387 0.080-4.76 0.093-7.147 0.013-5.373-0.013-10.733 0.027-16.093z"></path>
</symbol>
<symbol id="icon-vkontakte" viewBox="0 0 32 32">
<path d="M27.541 18.46c1.061 1.036 2.182 2.011 3.134 3.152 0.421 0.507 0.819 1.030 1.123 1.619 0.432 0.836 0.041 1.757-0.709 1.807l-4.662-0.002c-1.202 0.1-2.162-0.384-2.968-1.206-0.645-0.657-1.243-1.357-1.864-2.037-0.254-0.278-0.521-0.539-0.839-0.746-0.636-0.413-1.189-0.287-1.552 0.377-0.37 0.675-0.454 1.423-0.491 2.175-0.050 1.098-0.382 1.386-1.484 1.437-2.357 0.111-4.593-0.245-6.671-1.434-1.832-1.048-3.252-2.528-4.488-4.203-2.407-3.262-4.251-6.845-5.907-10.53-0.373-0.83-0.1-1.276 0.816-1.291 1.521-0.030 3.041-0.027 4.564-0.002 0.618 0.009 1.027 0.364 1.266 0.947 0.823 2.023 1.83 3.948 3.093 5.732 0.337 0.475 0.68 0.95 1.168 1.284 0.541 0.37 0.952 0.248 1.207-0.355 0.161-0.382 0.232-0.793 0.268-1.202 0.12-1.407 0.136-2.812-0.075-4.214-0.13-0.875-0.623-1.442-1.496-1.607-0.446-0.084-0.379-0.25-0.164-0.505 0.375-0.439 0.727-0.712 1.43-0.712h5.269c0.829 0.164 1.014 0.536 1.127 1.371l0.005 5.852c-0.009 0.323 0.161 1.282 0.743 1.496 0.466 0.152 0.773-0.22 1.052-0.516 1.261-1.339 2.162-2.921 2.966-4.559 0.357-0.72 0.664-1.469 0.961-2.216 0.22-0.555 0.566-0.828 1.191-0.816l5.071 0.005c0.15 0 0.302 0.002 0.448 0.027 0.854 0.146 1.089 0.513 0.825 1.348-0.416 1.309-1.225 2.4-2.016 3.496-0.846 1.17-1.75 2.3-2.589 3.477-0.77 1.075-0.709 1.617 0.248 2.55v0z"></path>
</symbol>
<symbol id="icon-whatsapp" viewBox="0 0 32 32">
<path d="M2.672 29.333l1.803-6.624c-1.136-1.916-1.808-4.223-1.808-6.688 0-0.008 0-0.015 0-0.023v0.001c0-7.364 5.969-13.333 13.333-13.333s13.333 5.969 13.333 13.333-5.969 13.333-13.333 13.333c-0.006 0-0.014 0-0.021 0-2.463 0-4.77-0.671-6.747-1.84l0.062 0.034-6.621 1.807zM11.188 9.744c-0.182 0.012-0.351 0.060-0.502 0.137l0.007-0.003c-0.15 0.086-0.279 0.187-0.392 0.303l-0.001 0.001c-0.16 0.151-0.251 0.281-0.348 0.408-0.47 0.607-0.753 1.379-0.753 2.217 0 0.007 0 0.014 0 0.021v-0.001c0.003 0.653 0.173 1.289 0.44 1.884 0.545 1.203 1.443 2.476 2.628 3.656 0.285 0.284 0.564 0.569 0.864 0.835 1.416 1.252 3.135 2.196 5.032 2.708l0.088 0.020 0.759 0.116c0.247 0.013 0.493-0.005 0.741-0.017 0.41-0.022 0.789-0.133 1.125-0.315l-0.014 0.007c0.221-0.117 0.325-0.176 0.511-0.293 0 0 0.057-0.037 0.167-0.12 0.18-0.133 0.291-0.228 0.44-0.384 0.111-0.115 0.207-0.249 0.28-0.403 0.104-0.217 0.208-0.632 0.251-0.977 0.032-0.264 0.023-0.408 0.019-0.497-0.005-0.143-0.124-0.291-0.253-0.353l-0.776-0.348s-1.16-0.505-1.868-0.828c-0.069-0.031-0.15-0.051-0.235-0.055l-0.001-0c-0.020-0.002-0.043-0.003-0.066-0.003-0.17 0-0.324 0.066-0.439 0.173l0-0v-0.003c-0.007 0-0.096 0.076-1.060 1.244-0.086 0.115-0.222 0.188-0.374 0.188-0.041 0-0.081-0.005-0.12-0.015l0.003 0.001c-0.1-0.027-0.185-0.057-0.267-0.093l0.012 0.005c-0.165-0.069-0.223-0.096-0.336-0.145l-0.007-0.003c-0.803-0.355-1.494-0.802-2.102-1.341l0.008 0.007c-0.168-0.147-0.324-0.307-0.484-0.461-0.515-0.494-0.964-1.048-1.339-1.655l-0.021-0.036-0.079-0.127c-0.053-0.079-0.099-0.169-0.133-0.265l-0.003-0.009c-0.051-0.196 0.081-0.353 0.081-0.353s0.324-0.355 0.475-0.547c0.114-0.144 0.229-0.306 0.337-0.474l0.014-0.024c0.157-0.253 0.207-0.513 0.124-0.715-0.373-0.912-0.76-1.82-1.157-2.721-0.079-0.179-0.312-0.307-0.524-0.332-0.072-0.008-0.144-0.016-0.216-0.021-0.067-0.004-0.145-0.006-0.224-0.006-0.11 0-0.22 0.004-0.328 0.012l0.015-0.001z"></path>
</symbol>
<symbol id="icon-youtube" viewBox="-9 -9 50 50">
<path d="M30.753 6.673c-1.155-1.373-3.288-1.933-7.361-1.933h-14.785c-4.166 0-6.335 0.596-7.486 2.058-1.122 1.425-1.122 3.525-1.122 6.432v5.54c0 5.631 1.331 8.49 8.608 8.49h14.785c3.532 0 5.489-0.494 6.755-1.706 1.298-1.243 1.852-3.272 1.852-6.784v-5.54c0-3.065-0.087-5.178-1.247-6.557zM20.544 16.765l-6.714 3.509c-0.15 0.078-0.314 0.117-0.478 0.117-0.186 0-0.371-0.050-0.535-0.149-0.309-0.187-0.497-0.522-0.497-0.883v-6.995c0-0.36 0.188-0.695 0.496-0.882s0.692-0.2 1.012-0.034l6.714 3.486c0.342 0.177 0.556 0.53 0.557 0.915s-0.213 0.738-0.554 0.916z"></path>
</symbol>
<symbol id="icon-instagram" viewBox="-9 -9 50 50">
<path d="M10.24 1.92c-4.589 0-8.32 3.731-8.32 8.32v11.52c0 4.589 3.731 8.32 8.32 8.32h11.52c4.589 0 8.32-3.731 8.32-8.32v-11.52c0-4.589-3.731-8.32-8.32-8.32h-11.52zM23.68 7.040c0.704 0 1.28 0.576 1.28 1.28s-0.576 1.28-1.28 1.28c-0.704 0-1.28-0.576-1.28-1.28s0.576-1.28 1.28-1.28zM16 8.96c3.885 0 7.040 3.155 7.040 7.040s-3.155 7.040-7.040 7.040c-3.885 0-7.040-3.155-7.040-7.040s3.155-7.040 7.040-7.040zM16 10.24c-3.174 0-5.76 2.586-5.76 5.76s2.586 5.76 5.76 5.76c3.174 0 5.76-2.586 5.76-5.76s-2.586-5.76-5.76-5.76z"></path>
</symbol>
<symbol id="icon-viber" viewBox="0 0 32 32">
<path d="M28.66 8.42c-0.5-1.785-1.49-3.195-2.94-4.192-1.83-1.263-3.935-1.708-5.753-1.98-2.515-0.375-4.793-0.427-6.965-0.163-2.035 0.25-3.567 0.647-4.965 1.29-2.74 1.26-4.385 3.297-4.888 6.055-0.245 1.34-0.41 2.55-0.505 3.705-0.22 2.67-0.020 5.033 0.61 7.223 0.615 2.135 1.687 3.66 3.28 4.663 0.405 0.255 0.925 0.44 1.428 0.617 0.285 0.1 0.563 0.198 0.79 0.305 0.21 0.098 0.21 0.115 0.207 0.29-0.018 1.517 0 4.492 0 4.492l0.005 0.635h1.14l0.185-0.18c0.123-0.115 2.947-2.845 3.955-3.945l0.137-0.152c0.172-0.2 0.172-0.2 0.35-0.203 1.36-0.027 2.75-0.080 4.13-0.155 1.672-0.090 3.61-0.253 5.435-1.012 1.67-0.698 2.89-1.805 3.622-3.29 0.765-1.55 1.218-3.227 1.387-5.13 0.3-3.345 0.087-6.247-0.648-8.873zM22.645 21.427c-0.42 0.683-1.045 1.157-1.782 1.465-0.54 0.225-1.090 0.177-1.622-0.047-4.457-1.887-7.955-4.86-10.265-9.135-0.477-0.88-0.807-1.84-1.188-2.77-0.077-0.19-0.072-0.415-0.107-0.625 0.032-1.502 1.185-2.35 2.35-2.605 0.445-0.1 0.84 0.058 1.17 0.375 0.915 0.87 1.637 1.883 2.182 3.018 0.238 0.498 0.13 0.938-0.275 1.308-0.085 0.078-0.172 0.148-0.265 0.217-0.925 0.695-1.060 1.223-0.568 2.27 0.84 1.783 2.235 2.98 4.038 3.722 0.475 0.195 0.922 0.098 1.285-0.288 0.050-0.050 0.105-0.1 0.14-0.16 0.71-1.185 1.742-1.067 2.695-0.392 0.625 0.445 1.232 0.915 1.85 1.367 0.942 0.692 0.935 1.343 0.363 2.28zM16.733 9.6c-0.21 0-0.42 0.018-0.628 0.053-0.35 0.057-0.678-0.178-0.738-0.527-0.057-0.348 0.178-0.678 0.527-0.735 0.275-0.047 0.558-0.070 0.837-0.070 2.773 0 5.027 2.255 5.027 5.027 0 0.283-0.023 0.565-0.070 0.838-0.052 0.313-0.323 0.535-0.63 0.535-0.035 0-0.070-0.002-0.108-0.010-0.348-0.057-0.582-0.387-0.525-0.735 0.035-0.205 0.052-0.415 0.052-0.627 0-2.065-1.683-3.748-3.747-3.748zM19.84 13.44c0 0.352-0.288 0.64-0.64 0.64s-0.64-0.287-0.64-0.64c0-1.057-0.863-1.92-1.92-1.92-0.352 0-0.64-0.287-0.64-0.64s0.288-0.64 0.64-0.64c1.765 0 3.2 1.435 3.2 3.2zM23.495 14.863c-0.067 0.297-0.332 0.498-0.625 0.498-0.047 0-0.095-0.005-0.142-0.015-0.345-0.080-0.56-0.422-0.483-0.768 0.093-0.408 0.14-0.83 0.14-1.255 0-3.11-2.532-5.643-5.643-5.643-0.425 0-0.848 0.048-1.255 0.14-0.345 0.080-0.688-0.138-0.765-0.482-0.080-0.345 0.137-0.688 0.482-0.765 0.5-0.115 1.018-0.173 1.537-0.173 3.817 0 6.922 3.105 6.922 6.923 0 0.52-0.058 1.037-0.17 1.54z"></path>
</symbol>
<symbol id="icon-like" viewBox="-2 -2 36 36">
<path d="M5.224 10.454h-4.179c-0.575 0-1.045 0.468-1.045 1.045v18.805c0 0.577 0.468 1.045 1.045 1.045h4.179c0.577 0 1.045-0.468 1.045-1.045v-18.805c0-0.577-0.47-1.045-1.045-1.045z"></path>
<path d="M29.392 10.454c-0.168-0.028-8.046 0-8.046 0l1.1-3.002c0.759-2.073 0.268-5.239-1.839-6.365-0.686-0.367-1.644-0.551-2.417-0.356-0.443 0.112-0.833 0.405-1.065 0.798-0.267 0.452-0.239 0.98-0.334 1.481-0.241 1.271-0.842 2.48-1.772 3.388-1.622 1.582-6.661 6.146-6.661 6.146v16.716h17.412c2.349 0.001 3.889-2.622 2.73-4.672 1.381-0.885 1.854-2.748 1.045-4.179 1.381-0.885 1.854-2.748 1.045-4.179 2.383-1.526 1.587-5.304-1.198-5.775z"></path>
</symbol>
<symbol id="icon-drops" viewBox="0 0 32 32">
<path d="M18.876 12.703c0-0.607-0.091-1.193-0.255-1.747-0.152-1.084-0.496-2.172-1.009-3.17-2.452-4.758-6.057-7.786-6.057-7.786s-0.051 2.568-2.027 4.857c-3.66 4.239-2.924 8.51-2.924 8.51l0.001 0.001c0.331 3.087 2.943 5.491 6.117 5.491 3.399-0.001 6.154-2.756 6.154-6.155zM9.648 8.259c-0.076 0.048-1.783 1.175-1.548 4.853 0.011 0.183-0.127 0.341-0.311 0.353-0.007 0-0.014 0.001-0.021 0.001-0.175 0-0.32-0.136-0.332-0.311-0.262-4.112 1.777-5.409 1.864-5.462 0.156-0.097 0.361-0.047 0.458 0.111 0.095 0.156 0.046 0.36-0.11 0.456z"></path>
<path d="M25.457 20.693c0-0.361-0.054-0.708-0.152-1.038-0.091-0.645-0.295-1.291-0.6-1.884-1.457-2.828-3.599-4.627-3.599-4.627s-0.031 1.526-1.206 2.886c-2.175 2.519-1.737 5.057-1.737 5.057v0.001c0.197 1.834 1.749 3.262 3.635 3.262 2.021-0 3.658-1.638 3.658-3.657zM19.973 18.052c-0.045 0.029-1.059 0.699-0.92 2.884 0.006 0.109-0.076 0.203-0.185 0.21-0.004 0-0.008 0-0.012 0-0.104 0-0.191-0.080-0.198-0.185-0.155-2.443 1.057-3.214 1.108-3.245 0.093-0.057 0.215-0.028 0.272 0.065 0.056 0.093 0.027 0.215-0.065 0.272z"></path>
<path d="M20.171 28.767c-0.063-0.443-0.203-0.887-0.413-1.295-1.003-1.947-2.477-3.185-2.477-3.185s-0.021 1.051-0.829 1.987c-1.497 1.734-1.196 3.48-1.196 3.48v0.001c0.136 1.263 1.205 2.246 2.502 2.246 1.39 0 2.517-1.127 2.517-2.516 0.001-0.25-0.037-0.489-0.104-0.716zM16.502 27.665c-0.031 0.020-0.729 0.481-0.633 1.985 0.004 0.075-0.052 0.139-0.127 0.144-0.003 0-0.006 0-0.009 0-0.072 0-0.131-0.056-0.136-0.128-0.107-1.681 0.727-2.212 0.763-2.233 0.064-0.040 0.147-0.019 0.186 0.044 0.039 0.065 0.019 0.148-0.044 0.188z"></path>
</symbol>
<symbol id="icon-size" viewBox="-3 -3 38 38">
<path d="M5.459 18.772l-5.459-5.461 0.003 18.685 18.686 0.003-5.461-5.456 13.316-13.314 5.456 5.46-0.003-18.687-18.687-0.003 5.459 5.459z"></path>
</symbol>
<symbol id="icon-triple" viewBox="0 0 32 32">
<path d="M11.877 1.373c-0.044-0-0.089 0.001-0.133 0.002 2.415 4.666 11.685 9.845 19.244 20.814-2.405-9.995-13.459-20.799-19.111-20.816zM5.221 4.086c3.828 6.138 15.572 13.297 23.484 23.678-2.424-10.074-17.874-23.832-23.484-23.678zM1.014 9.168c3.71 5.458 12.157 9.698 22.189 21.57-2.425-10.074-16.579-21.724-22.189-21.57z"></path>
</symbol>
<symbol id="icon-devices" viewBox="-2 -2 36 36">
<path d="M16.327 28.99v-1.23h-12.643v-23.519h16.203v2.029c0.334-0.079 0.674-0.124 1.027-0.124h2.467v-3.566c0-1.067-0.628-1.983-1.525-2.375-0.301-0.131-0.628-0.203-0.968-0.203h-18.205c-0.347 0-0.674 0.072-0.975 0.203-0.897 0.393-1.525 1.309-1.525 2.375v26.843c0 1.42 1.119 2.578 2.493 2.578h14.403c-0.471-0.733-0.753-1.61-0.753-2.552v-0.458zM12.95 30.698h-2.336c-0.347 0-0.628-0.294-0.628-0.654s0.281-0.654 0.628-0.654h2.336c0.347 0 0.628 0.294 0.628 0.654 0 0.366-0.281 0.654-0.628 0.654zM29.35 8.258h-8.442c-1.361 0-2.467 1.152-2.467 2.552v18.637c0 1.4 1.112 2.552 2.467 2.552h8.442c1.355 0 2.467-1.152 2.467-2.552v-18.644c0-1.394-1.112-2.546-2.467-2.546zM26.195 30.927h-2.382c-0.353 0-0.641-0.301-0.641-0.661 0-0.366 0.288-0.661 0.641-0.661h2.382c0.353 0 0.641 0.301 0.641 0.661s-0.294 0.661-0.641 0.661zM29.356 28.532c-0.013 0-0.033 0.007-0.046 0.007h-8.37c-0.013 0-0.033-0.007-0.046-0.007v-16.792c0.013 0 0.033-0.007 0.046-0.007h8.376c0.013 0 0.026 0.007 0.039 0.007v16.792z"></path>
</symbol>
<symbol id="icon-diamond" viewBox="-1 -1 34 34">
<path d="M0.168 11.409l14.059 17.453-6.377-17.453z"></path>
<path d="M9.103 11.409l6.794 18.595 6.928-18.595z"></path>
<path d="M17.411 29.313l14.421-17.904h-7.752z"></path>
<path d="M26.331 1.996h-9.094l6.236 7.675z"></path>
<path d="M22.412 10.232l-6.412-7.891-6.412 7.891z"></path>
<path d="M14.764 1.996h-9.101l2.823 7.727z"></path>
<path d="M4.683 2.74l-4.683 7.492h7.419z"></path>
<path d="M32 10.232l-4.687-7.499-2.795 7.499z"></path>
</symbol>
<symbol id="icon-meteor" viewBox="0 0 32 32">
<path d="M2.688 26.725h3.025v3.025h-3.025v-3.025zM3.7 18.938l2.75-1.275 1.275 2.75-2.75 1.275-1.275-2.75zM0.125 13.925l4.287-4.287 2.138 2.138-4.287 4.287-2.138-2.137zM10.938 29.1l2.137-2.137 2.137 2.137-2.137 2.137-2.137-2.137zM5.987 1.712l0.713-0.713 9.125 9.125-0.713 0.713-9.125-9.125zM5.713 6.95l0.713-0.713 9.125 9.125-0.713 0.712-9.125-9.125zM26.887 12l-3.938 0.363 3.025 3.012-0.7 0.725-3.075-3.088 0.7-0.7-9.125-9.125-0.7 0.7 8.575 8.575-0.913 0.1-1.212 1.213 1.313 1.35-0.7 0.7-1.313-1.35-1.35 1.35-0.15 1.313 3.525 3.525-0.7 0.7-2.913-2.975-0.613 6.15 4.075 4.075 5.45-0.5 4.9-4.938 0.575-6.425-4.738-4.75z"></path>
</symbol>
<symbol id="icon-crashtest" viewBox="0 0 32 32">
<path d="M19.566 21.513c0.502 0.942 0.588 1.994 0.33 2.95l-3.732-1.138 1.139-3.731c0.937 0.319 1.761 0.978 2.263 1.92zM12.435 25.311c0.523 0.983 1.399 1.662 2.388 1.964l1.178-3.863-3.862-1.178c-0.302 0.99-0.227 2.095 0.297 3.077zM27.1 23.162v6.759l-0.047-0-0.436 0.221c-0.219 0.111-3.771 1.858-9.898 1.858-3.137 0-6.95-0.458-11.336-1.828l-0.466-0.146-0.018-0.106v-6.758c0-4.596 3.74-8.337 8.337-8.337h0.455c0.005-0.239 0.077-0.437 0.221-0.582 0.060-0.060 0.13-0.11 0.21-0.149-0.004-0.021-0.007-0.042-0.008-0.064l-0.002-0.121c-0.001-0.062 0.019-0.123 0.055-0.173-0.042-0.019-0.085-0.039-0.128-0.060-0.093-0.044-0.188-0.090-0.288-0.128-0.089-0.035-0.155-0.111-0.178-0.203-0.008-0.035-0.008-0.071-0.004-0.105-0.941 0.588-1.975 0.894-3.087 0.91h-0.030c-0.864 0-1.396-0.519-1.5-1.461-0.026-0.237-0.089-0.475-0.156-0.726-0.061-0.23-0.124-0.467-0.159-0.714-0.076-0.522-0.092-0.981-0.048-1.401l0.007-0.066c0.034-0.312 0.025-0.316-0.128-0.376-0.296-0.116-0.483-0.293-0.553-0.525-0.073-0.24-0.010-0.504 0.186-0.786 0.079-0.114 0.149-0.24 0.223-0.372 0.089-0.16 0.182-0.326 0.298-0.482 0.544-0.731 0.82-1.498 0.87-2.413 0.082-1.506 0.886-2.813 2.263-3.682 1.204-0.76 2.536-1.145 3.958-1.145 0.862 0 1.785 0.142 2.741 0.422 0.316 0.092 0.534 0.247 0.664 0.474 0.064-0.018 0.133-0.015 0.195 0.013 1.578 0.697 2.466 1.671 2.711 2.978 0.226 1.197 0.306 2.386 0.239 3.534-0.075 1.272-1.096 2.195-2.428 2.195-0.235 0-0.474-0.029-0.71-0.087-0.003-0.001-0.007-0.002-0.010-0.003-0.050 0.039-0.111 0.063-0.178 0.063h-0.192l0.076 0.182c0.054 0.13 0.008 0.28-0.11 0.357 0 0-0.001 0.001-0.001 0.001 0.035 0.001 0.069 0.003 0.104 0.004 0.248 0.011 0.468 0.237 0.55 0.334 0.106 0.124 0.226 0.312 0.203 0.503-0.037 0.313-0.397 0.804-0.767 0.82-0.037 0.001-0.075 0.003-0.112 0.004 0.029 0.095 0.009 0.202-0.062 0.28-0.021 0.024-0.048 0.060-0.074 0.097 0.004 0 0.008 0 0.013 0h0.017c0.861 0 1.008 0.521 1.018 0.831 0.009 0.263-0.062 0.476-0.213 0.631-0.222 0.23-0.546 0.265-0.782 0.267l0.001 0.074c0.845 0.006 0.987 0.529 0.995 0.841 0.001 0.019-0.004 0.032-0.004 0.050 4.207 0.419 7.504 3.979 7.504 8.295zM14.387 5.574c0.603 1.133 2.016 1.564 3.148 0.96s1.563-2.016 0.96-3.149c-0.604-1.132-2.016-1.563-3.148-0.96s-1.564 2.016-0.96 3.148zM19.955 21.306c-1.162-2.181-3.881-3.010-6.061-1.848s-3.010 3.881-1.848 6.061c1.162 2.181 3.882 3.010 6.062 1.848 2.18-1.161 3.010-3.881 1.848-6.061zM15.829 6.487l0.611-2.006-2.006-0.612c-0.156 0.514-0.118 1.088 0.154 1.598s0.726 0.864 1.24 1.020zM18.293 3.494c-0.261-0.489-0.689-0.831-1.176-0.997l-0.591 1.938 1.938 0.591c0.134-0.497 0.089-1.043-0.171-1.532z"></path>
</symbol>
<symbol id="icon-star" viewBox="0 0 32 32">
<path d="M32 12.408l-11.056-1.607-4.944-10.018-4.944 10.018-11.056 1.607 8 7.798-1.889 11.011 9.889-5.199 9.889 5.199-1.889-11.011 8-7.798z"></path>
</symbol>
<symbol id="icon-layer-stack" viewBox="0 0 32 32">
<path d="M16.016 3.043c-0.005-0-0.010-0-0.015-0-0.418 0-0.796 0.093-1.070 0.243l-14.489 7.95c-0.274 0.15-0.443 0.358-0.443 0.587s0.169 0.437 0.443 0.587l14.488 7.951c0.274 0.15 0.652 0.243 1.069 0.243s0.796-0.093 1.069-0.243l14.488-7.951c0.274-0.15 0.443-0.358 0.443-0.587s-0.169-0.437-0.443-0.587l-14.488-7.951c-0.27-0.148-0.642-0.241-1.053-0.243h-0.001zM16 5.046l12.351 6.778-12.351 6.777-12.35-6.778zM1.513 14.826l-1.070 0.587c-0.274 0.15-0.443 0.358-0.443 0.587s0.169 0.437 0.443 0.587l14.488 7.951c0.274 0.15 0.652 0.243 1.069 0.243s0.796-0.093 1.069-0.243l14.488-7.951c0.274-0.15 0.443-0.358 0.443-0.587s-0.169-0.437-0.443-0.587l-1.069-0.587-14.487 7.951-12.349-6.778zM1.513 19.002l-1.070 0.587c-0.274 0.15-0.443 0.358-0.443 0.587s0.169 0.437 0.443 0.587l14.488 7.95c0.274 0.15 0.652 0.243 1.069 0.243s0.796-0.093 1.069-0.243l14.488-7.951c0.274-0.15 0.443-0.358 0.443-0.587s-0.169-0.437-0.443-0.587l-1.069-0.587-14.487 7.951-12.349-6.778z"></path>
</symbol>
<symbol id="icon-bended-arrow" viewBox="0 0 32 32">
<path d="M31.98 20.81l-2.614-8.897c-0.056-0.184-0.216-0.319-0.408-0.339-0.193-0.021-0.378 0.075-0.47 0.243l-1.481 2.684c-6.378-5.233-15.638-5.234-22.017-0.001l-1.48-2.683c-0.093-0.168-0.278-0.264-0.471-0.243-0.192 0.020-0.351 0.155-0.407 0.339l-2.614 8.897c-0.051 0.168-0.003 0.35 0.121 0.472 0.123 0.125 0.304 0.171 0.473 0.123l8.895-2.615c0.187-0.055 0.32-0.216 0.341-0.408 0.022-0.192-0.075-0.378-0.244-0.47l-2.126-1.172c5.018-3.822 12.022-3.822 17.040 0l-2.125 1.172c-0.168 0.092-0.265 0.278-0.244 0.47 0.020 0.192 0.154 0.353 0.34 0.408l8.895 2.615c0.169 0.048 0.351 0.002 0.473-0.123 0.125-0.122 0.172-0.304 0.122-0.472z"></path>
</symbol>
<symbol id="icon-bubbles" viewBox="0 0 32 32">
<path d="M22 14c-4.4 0-8 3.6-8 8s3.6 8 8 8 8-3.6 8-8-3.6-8-8-8zM25 21.1c-0.2 0.1-0.4 0.2-0.6 0.2-0.3 0-0.6-0.2-0.8-0.4-0.4-0.5-1-0.9-1.6-0.9s-1-0.4-1-1 0.4-1 1-1c1.3 0 2.5 0.6 3.3 1.7 0.3 0.5 0.2 1.1-0.3 1.4z"></path>
<path d="M9 14c-2.8 0-5-2.2-5-5s2.2-5 5-5 5 2.2 5 5-2.2 5-5 5z"></path>
<path d="M5.5 26c-2.5 0-4.5-2-4.5-4.5s2-4.5 4.5-4.5 4.5 2 4.5 4.5-2 4.5-4.5 4.5z"></path>
<path d="M19 7c-0.6 0-1-0.4-1-1v-3c0-0.6 0.4-1 1-1s1 0.4 1 1v3c0 0.6-0.4 1-1 1z"></path>
<path d="M26 11h-3c-0.6 0-1-0.4-1-1s0.4-1 1-1h3c0.6 0 1 0.4 1 1s-0.4 1-1 1z"></path>
<path d="M21.8 8.2c-0.3 0-0.5-0.1-0.7-0.3-0.4-0.4-0.4-1 0-1.4l2.1-2.1c0.4-0.4 1-0.4 1.4 0s0.4 1 0 1.4l-2.1 2.1c-0.2 0.2-0.4 0.3-0.7 0.3z"></path>
</symbol>
</defs>
</svg>
