<svg aria-hidden="true" style="position: absolute; width: 0; height: 0; overflow: hidden;" version="1.1" xmlns="http://www.w3.org/2000/svg" xmlns:xlink="http://www.w3.org/1999/xlink">
<defs>
<symbol id="icon-facebook" viewBox="0 0 32 32">
<path d="M0 0v32h32v-32h-32zM21.169 8.806h-2.501c-0.495 0-0.995 0.512-0.995 0.893v2.55h3.492c-0.141 1.956-0.429 3.744-0.429 3.744h-3.080v11.083h-4.59v-11.084h-2.234v-3.729h2.234v-3.049c0-0.558-0.113-4.291 4.703-4.291h3.402v3.883z"></path>
</symbol>
<symbol id="icon-instagram" viewBox="0 0 32 32">
<path d="M16 12.818c-1.754 0-3.182 1.428-3.182 3.182s1.428 3.183 3.182 3.183c1.755 0 3.182-1.428 3.182-3.183s-1.427-3.182-3.182-3.182zM16 12.818c-1.754 0-3.182 1.428-3.182 3.182s1.428 3.183 3.182 3.183c1.755 0 3.182-1.428 3.182-3.183s-1.427-3.182-3.182-3.182zM21.301 7.63h-10.602c-1.692 0-3.069 1.377-3.069 3.069v10.602c0 1.692 1.377 3.069 3.069 3.069h10.602c1.692 0 3.069-1.377 3.069-3.069v-10.602c0-1.692-1.377-3.069-3.069-3.069zM16 21.511c-3.038 0-5.511-2.472-5.511-5.511s2.472-5.511 5.511-5.511c3.039 0 5.511 2.472 5.511 5.511s-2.472 5.511-5.511 5.511zM21.688 11.629c-0.719 0-1.304-0.585-1.304-1.304s0.585-1.304 1.304-1.304 1.304 0.585 1.304 1.304-0.585 1.304-1.304 1.304zM16 12.818c-1.754 0-3.182 1.428-3.182 3.182s1.428 3.183 3.182 3.183c1.755 0 3.182-1.428 3.182-3.183s-1.427-3.182-3.182-3.182zM21.301 7.63h-10.602c-1.692 0-3.069 1.377-3.069 3.069v10.602c0 1.692 1.377 3.069 3.069 3.069h10.602c1.692 0 3.069-1.377 3.069-3.069v-10.602c0-1.692-1.377-3.069-3.069-3.069zM16 21.511c-3.038 0-5.511-2.472-5.511-5.511s2.472-5.511 5.511-5.511c3.039 0 5.511 2.472 5.511 5.511s-2.472 5.511-5.511 5.511zM21.688 11.629c-0.719 0-1.304-0.585-1.304-1.304s0.585-1.304 1.304-1.304 1.304 0.585 1.304 1.304-0.585 1.304-1.304 1.304zM16 12.818c-1.754 0-3.182 1.428-3.182 3.182s1.428 3.183 3.182 3.183c1.755 0 3.182-1.428 3.182-3.183s-1.427-3.182-3.182-3.182zM0 0v32h32v-32h-32zM26.699 21.301c0 2.977-2.421 5.398-5.398 5.398h-10.602c-2.976 0-5.398-2.421-5.398-5.398v-10.602c0-2.976 2.421-5.398 5.398-5.398h10.602c2.977 0 5.398 2.421 5.398 5.398v10.602zM21.301 7.63h-10.602c-1.692 0-3.069 1.377-3.069 3.069v10.602c0 1.692 1.377 3.069 3.069 3.069h10.602c1.692 0 3.069-1.377 3.069-3.069v-10.602c0-1.692-1.377-3.069-3.069-3.069zM16 21.511c-3.038 0-5.511-2.472-5.511-5.511s2.472-5.511 5.511-5.511c3.039 0 5.511 2.472 5.511 5.511s-2.472 5.511-5.511 5.511zM21.688 11.629c-0.719 0-1.304-0.585-1.304-1.304s0.585-1.304 1.304-1.304 1.304 0.585 1.304 1.304-0.585 1.304-1.304 1.304zM16 12.818c-1.754 0-3.182 1.428-3.182 3.182s1.428 3.183 3.182 3.183c1.755 0 3.182-1.428 3.182-3.183s-1.427-3.182-3.182-3.182zM16 12.818c-1.754 0-3.182 1.428-3.182 3.182s1.428 3.183 3.182 3.183c1.755 0 3.182-1.428 3.182-3.183s-1.427-3.182-3.182-3.182zM16 12.818c-1.754 0-3.182 1.428-3.182 3.182s1.428 3.183 3.182 3.183c1.755 0 3.182-1.428 3.182-3.183s-1.427-3.182-3.182-3.182zM21.301 7.63h-10.602c-1.692 0-3.069 1.377-3.069 3.069v10.602c0 1.692 1.377 3.069 3.069 3.069h10.602c1.692 0 3.069-1.377 3.069-3.069v-10.602c0-1.692-1.377-3.069-3.069-3.069zM16 21.511c-3.038 0-5.511-2.472-5.511-5.511s2.472-5.511 5.511-5.511c3.039 0 5.511 2.472 5.511 5.511s-2.472 5.511-5.511 5.511zM21.688 11.629c-0.719 0-1.304-0.585-1.304-1.304s0.585-1.304 1.304-1.304 1.304 0.585 1.304 1.304-0.585 1.304-1.304 1.304zM16 12.818c-1.754 0-3.182 1.428-3.182 3.182s1.428 3.183 3.182 3.183c1.755 0 3.182-1.428 3.182-3.183s-1.427-3.182-3.182-3.182zM16 12.818c-1.754 0-3.182 1.428-3.182 3.182s1.428 3.183 3.182 3.183c1.755 0 3.182-1.428 3.182-3.183s-1.427-3.182-3.182-3.182zM16 12.818c-1.754 0-3.182 1.428-3.182 3.182s1.428 3.183 3.182 3.183c1.755 0 3.182-1.428 3.182-3.183s-1.427-3.182-3.182-3.182zM21.301 7.63h-10.602c-1.692 0-3.069 1.377-3.069 3.069v10.602c0 1.692 1.377 3.069 3.069 3.069h10.602c1.692 0 3.069-1.377 3.069-3.069v-10.602c0-1.692-1.377-3.069-3.069-3.069zM16 21.511c-3.038 0-5.511-2.472-5.511-5.511s2.472-5.511 5.511-5.511c3.039 0 5.511 2.472 5.511 5.511s-2.472 5.511-5.511 5.511zM21.688 11.629c-0.719 0-1.304-0.585-1.304-1.304s0.585-1.304 1.304-1.304 1.304 0.585 1.304 1.304-0.585 1.304-1.304 1.304zM16 12.818c-1.754 0-3.182 1.428-3.182 3.182s1.428 3.183 3.182 3.183c1.755 0 3.182-1.428 3.182-3.183s-1.427-3.182-3.182-3.182z"></path>
</symbol>
<symbol id="icon-linkedin" viewBox="0 0 32 32">
<path d="M17.329 14.372v-0.047c-0.010 0.016-0.023 0.031-0.031 0.047h0.031z"></path>
<path d="M0 0v32h32v-32h-32zM9.953 26.585h-4.748v-14.284h4.748v14.284zM7.579 10.352h-0.031c-1.593 0-2.625-1.097-2.625-2.469 0-1.402 1.062-2.468 2.687-2.468s2.624 1.066 2.655 2.468c0 1.371-1.030 2.469-2.686 2.469zM27.077 26.585h-4.749v-7.642c0-1.919-0.686-3.23-2.405-3.23-1.313 0-2.093 0.882-2.436 1.737-0.125 0.305-0.158 0.73-0.158 1.158v7.977h-4.75c0 0 0.064-12.944 0-14.284h4.75v2.024c0.631-0.971 1.757-2.359 4.28-2.359 3.125 0 5.468 2.041 5.468 6.428v8.191z"></path>
</symbol>
<symbol id="icon-odnoklassniki" viewBox="0 0 32 32">
<path d="M16.017 12.797c1.786-0.006 3.209-1.44 3.202-3.23s-1.432-3.216-3.219-3.218c-1.802-0.002-3.241 1.45-3.227 3.256 0.013 1.784 1.452 3.199 3.244 3.191z"></path>
<path d="M30.298 0h-28.596c-0.94 0-1.702 0.762-1.702 1.702v28.596c0 0.94 0.762 1.702 1.702 1.702h28.596c0.94 0 1.702-0.762 1.702-1.702v-28.596c0-0.94-0.762-1.702-1.702-1.702zM16.027 2.984c3.642 0.009 6.566 2.989 6.548 6.673-0.019 3.598-2.991 6.515-6.628 6.503-3.6-0.012-6.553-2.997-6.532-6.603 0.021-3.646 2.976-6.584 6.611-6.573zM23.405 18.748c-0.805 0.828-1.775 1.425-2.852 1.844-1.018 0.394-2.134 0.593-3.238 0.725 0.167 0.182 0.245 0.27 0.349 0.375 1.499 1.506 3.005 3.007 4.499 4.517 0.509 0.514 0.616 1.153 0.335 1.752-0.307 0.655-0.993 1.085-1.666 1.039-0.426-0.030-0.758-0.242-1.053-0.539-1.132-1.139-2.285-2.256-3.392-3.415-0.322-0.338-0.478-0.275-0.763 0.019-1.138 1.172-2.294 2.325-3.457 3.472-0.523 0.515-1.144 0.608-1.751 0.314-0.644-0.312-1.053-0.97-1.022-1.631 0.022-0.447 0.242-0.788 0.548-1.094 1.483-1.481 2.962-2.966 4.443-4.45 0.098-0.098 0.19-0.203 0.332-0.356-2.018-0.211-3.838-0.707-5.396-1.926-0.193-0.151-0.393-0.298-0.57-0.467-0.682-0.655-0.75-1.404-0.21-2.177 0.461-0.661 1.236-0.839 2.042-0.459 0.156 0.073 0.305 0.165 0.447 0.264 2.903 1.995 6.892 2.050 9.806 0.091 0.288-0.22 0.597-0.403 0.955-0.493 0.696-0.179 1.344 0.076 1.717 0.685 0.428 0.693 0.422 1.372-0.104 1.911z"></path>
</symbol>
<symbol id="icon-pinterest" viewBox="0 0 32 32">
<path d="M0 0v32h32v-32h-32zM17.711 20.933c-1.376 0-2.671-0.74-3.11-1.586 0 0-0.74 2.932-0.894 3.501-0.551 2-2.175 4-2.299 4.162-0.086 0.116-0.282 0.078-0.304-0.072-0.034-0.257-0.449-2.778 0.038-4.834 0.244-1.034 1.637-6.936 1.637-6.936s-0.406-0.812-0.406-2.013c0-1.888 1.094-3.295 2.457-3.295 1.159 0 1.714 0.868 1.714 1.911 0 1.162-0.74 2.906-1.124 4.516-0.317 1.351 0.675 2.45 2.008 2.45 2.415 0 4.035-3.094 4.035-6.761 0-2.791-1.876-4.881-5.295-4.881-3.859 0-6.265 2.881-6.265 6.094 0 1.112 0.328 1.894 0.841 2.497 0.235 0.282 0.265 0.393 0.184 0.713-0.065 0.235-0.201 0.795-0.265 1.022-0.081 0.321-0.347 0.435-0.637 0.316-1.774-0.726-2.603-2.672-2.603-4.864 0-3.615 3.043-7.948 9.094-7.948 4.86 0 8.057 3.517 8.057 7.291 0 4.991-2.774 8.719-6.864 8.719z"></path>
</symbol>
<symbol id="icon-telegram" viewBox="0 0 32 32">
<path d="M0 0v32h32v-32h-32zM27.064 7.081l-3.76 18.084c-0.089 0.427-0.589 0.62-0.942 0.364l-5.132-3.726c-0.312-0.226-0.736-0.214-1.035 0.029l-2.846 2.32c-0.33 0.27-0.828 0.12-0.954-0.287l-1.976-6.354-5.105-1.905c-0.519-0.194-0.523-0.926-0.006-1.126l20.95-8.082c0.444-0.172 0.902 0.217 0.806 0.684z"></path>
<path d="M22.053 10.351l-9.977 6.144c-0.382 0.236-0.562 0.698-0.439 1.13l1.079 3.79c0.077 0.269 0.466 0.241 0.504-0.036l0.28-2.078c0.053-0.391 0.24-0.752 0.529-1.021l8.233-7.653c0.154-0.143-0.030-0.385-0.21-0.275z"></path>
</symbol>
<symbol id="icon-twitter" viewBox="0 0 32 32">
<path d="M0 0v32h32v-32h-32zM24.809 11.482c0.009 0.195 0.013 0.391 0.013 0.588 0 6.006-4.572 12.932-12.932 12.932-2.567 0-4.956-0.752-6.967-2.042 0.356 0.042 0.717 0.064 1.084 0.064 2.129 0 4.089-0.727 5.645-1.946-1.989-0.037-3.668-1.351-4.246-3.156 0.278 0.053 0.562 0.082 0.855 0.082 0.415 0 0.816-0.056 1.197-0.16-2.079-0.418-3.646-2.255-3.646-4.457 0-0.019 0-0.038 0-0.057 0.613 0.34 1.313 0.545 2.059 0.569-1.22-0.815-2.022-2.206-2.022-3.783 0-0.833 0.224-1.614 0.615-2.285 2.242 2.75 5.591 4.559 9.368 4.749-0.078-0.333-0.118-0.68-0.118-1.036 0-2.51 2.035-4.545 4.545-4.545 1.307 0 2.489 0.552 3.318 1.435 1.035-0.204 2.008-0.582 2.886-1.103-0.339 1.061-1.060 1.952-1.998 2.515 0.919-0.11 1.795-0.354 2.61-0.716-0.609 0.911-1.38 1.712-2.268 2.353z"></path>
</symbol>
<symbol id="icon-vkontakte" viewBox="0 0 32 32">
<path d="M0 0v32h32v-32h-32zM14.205 8.557c0.906-0.009 1.792 0.091 2.225 0.104 1.603 0.046 1.886 0.857 1.865 1.523-0.030 0.976-0.658 5.107 0.506 5.51 1.696-0.907 2.834-3.724 3.662-5.51 0.419-0.903 0.353-0.948 1.318-0.949l3.836-0.006c0.924-0.001 0.888-0.034 1.184 0.344 0.688 0.878-2.172 4.528-3.096 5.537-1.705 1.863-0.71 2.584-0.436 2.84 1.272 1.186 2.502 2.416 3.266 3.551 0.607 0.902 0.357 1.742-0.416 1.773l-4.113 0.17c-1.365 0.056-3.487-2.391-3.826-2.924-0.274-0.44-1.594-0.991-1.719 0.133l-0.174 1.568c-0.126 1.121-0.954 1.095-1.607 1.123-4.524 0.195-6.065-1.528-8.344-4.070-1.67-2.362-3.263-4.737-4.584-7.582-0.395-0.852-0.605-1.476-0.658-2.139 0.664-0.519 2.997-0.296 4.563-0.33 0.428-0.009 0.717 0.236 0.943 0.725 0.882 1.907 1.844 3.78 3.117 5.436 0.554 0.511 1.044 0.698 1.289-0.34 0.142-0.013 0.131-1.732 0.139-3.029 0.006-0.89-0.099-1.958-1.607-2.451 0.305-0.8 1.503-0.994 2.668-1.006z"></path>
</symbol>
<symbol id="icon-youtube" viewBox="0 0 32 32">
<path d="M14.104 12.438l5.164 3.562-5.164 3.562v-7.123zM32 0v32h-32v-32h32zM25.088 13.384c0-2.16-1.751-3.911-3.911-3.911h-10.355c-2.16 0-3.911 1.751-3.911 3.911v5.232c0 2.16 1.751 3.911 3.911 3.911h10.355c2.16 0 3.911-1.751 3.911-3.911v-5.232z"></path>
</symbol>
</defs>
</svg>
